<svg xmlns="http://www.w3.org/2000/svg" viewBox="0 0 64 64" width="100%" height="100%" shape-rendering="crispEdges" preserveAspectRatio="xMidYMid meet" aria-label="pixel mayor icon">
  <rect x="12" y="4" width="40" height="8" fill="#2c3e50"/>
  <rect x="8" y="12" width="48" height="6" fill="#34495e"/>
  <rect x="18" y="12" width="28" height="4" fill="#2d2a2a"/>
  <rect x="14" y="16" width="4" height="10" fill="#2d2a2a"/>
  <rect x="46" y="16" width="4" height="10" fill="#2d2a2a"/>
  <rect x="18" y="16" width="28" height="22" fill="#f1c27d"/>
  <rect x="24" y="24" width="3" height="3" fill="#2d2a2a"/>
  <rect x="37" y="24" width="3" height="3" fill="#2d2a2a"/>
  <rect x="28" y="28" width="4" height="2" fill="#9b4d30"/>
  <rect x="30" y="30" width="4" height="1" fill="#8b3b2b"/>
  <rect x="12" y="38" width="40" height="18" fill="#1f3b6b"/>
  <rect x="26" y="36" width="6" height="3" fill="#ffffff"/>
  <rect x="32" y="36" width="6" height="3" fill="#ffffff"/>
  <rect x="30" y="39" width="4" height="8" fill="#c0392b"/>
  <rect x="29" y="47" width="6" height="2" fill="#c0392b"/>
  <rect x="10" y="44" width="4" height="4" fill="#f1c40f"/>
  <rect x="14" y="40" width="4" height="4" fill="#f1c40f"/>
  <rect x="18" y="36" width="4" height="4" fill="#f1c40f"/>
  <rect x="22" y="32" width="4" height="4" fill="#f1c40f"/>
  <rect x="26" y="28" width="4" height="4" fill="#f1c40f"/>
  <rect x="18" y="36" width="2" height="2" fill="#ffffff"/>
  <rect x="19" y="36" width="1" height="1" fill="#e67e22"/>
  <rect x="8" y="40" width="6" height="6" fill="#1f3b6b"/>
  <rect x="50" y="40" width="6" height="6" fill="#1f3b6b"/>
  <rect x="18" y="16" width="28" height="1" fill="#caa07a" opacity="0.6"/>
</svg>