<svg xmlns="http://www.w3.org/2000/svg" viewBox="0 0 64 64" width="100%" height="100%" shape-rendering="crispEdges">
    <rect width="64" height="64" fill="#4caf50"/>
    <rect x="0" y="0" width="64" height="4" fill="#388e3c"/>
    <rect x="0" y="60" width="64" height="4" fill="#388e3c"/>
    <rect x="0" y="0" width="4" height="64" fill="#388e3c"/>
    <rect x="60" y="0" width="4" height="64" fill="#388e3c"/>
    <polygon points="10,22 4,34 16,34" fill="#2e7d32"/>
    <rect x="9" y="34" width="2" height="4" fill="#6d4c41"/>
    <polygon points="32,20 26,34 38,34" fill="#388e3c"/>
    <rect x="31" y="34" width="2" height="4" fill="#6d4c41"/>
    <polygon points="54,22 48,34 60,34" fill="#2e7d32"/>
    <rect x="53" y="34" width="2" height="4" fill="#6d4c41"/>
    <polygon points="18,34 12,48 24,48" fill="#388e3c"/>
    <rect x="17" y="48" width="2" height="4" fill="#6d4c41"/>
    <polygon points="42,32 36,48 48,48" fill="#2e7d32"/>
    <rect x="41" y="48" width="2" height="4" fill="#6d4c41"/>
    <polygon points="6,46 2,54 10,54" fill="#388e3c"/>
    <polygon points="26,46 22,54 30,54" fill="#2e7d32"/>
    <polygon points="50,46 46,54 54,54" fill="#388e3c"/>

</svg>