<svg xmlns="http://www.w3.org/2000/svg" viewBox="0 0 64 64" width="100%" height="100%" shape-rendering="crispEdges">
    <rect width="64" height="64" fill="#aeb6bf"/>
    <rect x="0" y="0" width="64" height="4" fill="#98a0a8"/>
    <rect x="0" y="60" width="64" height="4" fill="#98a0a8"/>
    <rect x="0" y="0" width="4" height="64" fill="#98a0a8"/>
    <rect x="60" y="0" width="4" height="64" fill="#98a0a8"/>
    <rect x="6"  y="28" width="10" height="36" fill="#5d6d7e"/>
    <rect x="18" y="20" width="12" height="44" fill="#7b8a99"/>
    <rect x="32" y="12" width="12" height="52" fill="#5d6d7e"/>
    <rect x="46" y="26" width="10" height="38" fill="#6c7a89"/>
    <rect x="34" y="8" width="8" height="4" fill="#85929e"/>
    <rect x="8"  y="32" width="2" height="2" fill="#f7dc6f"/>
    <rect x="12" y="38" width="2" height="2" fill="#f7dc6f"/>
    <rect x="20" y="24" width="2" height="2" fill="#f7dc6f"/>
    <rect x="24" y="30" width="2" height="2" fill="#f7dc6f"/>
    <rect x="34" y="18" width="2" height="2" fill="#f7dc6f"/>
    <rect x="38" y="26" width="2" height="2" fill="#f7dc6f"/>
    <rect x="40" y="40" width="2" height="2" fill="#f7dc6f"/>
    <rect x="48" y="30" width="2" height="2" fill="#f7dc6f"/>
    <rect x="52" y="36" width="2" height="2" fill="#f7dc6f"/>

</svg>