<svg xmlns="http://www.w3.org/2000/svg" viewBox="0 0 64 64" width="100%" height="100%" shape-rendering="crispEdges">
    <rect x="0" y="0" width="64" height="64" fill="#70db58"/>
    <rect x="0" y="0" width="64" height="4" fill="#5aa84a"/>
    <rect x="0" y="60" width="64" height="4" fill="#5aa84a"/>
    <rect x="0" y="0" width="4" height="64" fill="#5aa84a"/>
    <rect x="60" y="0" width="4" height="64" fill="#5aa84a"/>
    <rect x="4" y="4" width="56" height="2" fill="#7ed36c"/>
    <rect x="4" y="58" width="56" height="2" fill="#7ed36c"/>
    <rect x="4" y="4" width="2" height="56" fill="#7ed36c"/>
    <rect x="58" y="4" width="2" height="56" fill="#7ed36c"/>
    <rect x="10" y="10" width="2" height="2" fill="#5aa84a"/>
    <rect x="20" y="14" width="2" height="2" fill="#7ed36c"/>
    <rect x="30" y="12" width="2" height="2" fill="#5aa84a"/>
    <rect x="40" y="18" width="2" height="2" fill="#7ed36c"/>
    <rect x="50" y="10" width="2" height="2" fill="#5aa84a"/>
    <rect x="12" y="30" width="2" height="2" fill="#7ed36c"/>
    <rect x="22" y="26" width="2" height="2" fill="#5aa84a"/>
    <rect x="34" y="28" width="2" height="2" fill="#7ed36c"/>
    <rect x="46" y="32" width="2" height="2" fill="#5aa84a"/>
    <rect x="14" y="44" width="2" height="2" fill="#5aa84a"/>
    <rect x="28" y="48" width="2" height="2" fill="#7ed36c"/>
    <rect x="38" y="46" width="2" height="2" fill="#5aa84a"/>
    <rect x="52" y="50" width="2" height="2" fill="#7ed36c"/>
</svg>